<?xml version="1.0" encoding="UTF-8" standalone="no"?>
<svg
   xmlns:dc="http://purl.org/dc/elements/1.1/"
   xmlns:cc="http://creativecommons.org/ns#"
   xmlns:rdf="http://www.w3.org/1999/02/22-rdf-syntax-ns#"
   xmlns:svg="http://www.w3.org/2000/svg"
   xmlns="http://www.w3.org/2000/svg"
   xmlns:sodipodi="http://sodipodi.sourceforge.net/DTD/sodipodi-0.dtd"
   xmlns:inkscape="http://www.inkscape.org/namespaces/inkscape"
   version="1.1"
   id="svg2"
   xml:space="preserve"
   width="1122.52"
   height="793.70135"
   viewBox="0 0 1122.52 793.70135"
   sodipodi:docname="deejai.ai"><metadata
     id="metadata8"><rdf:RDF><cc:Work
         rdf:about=""><dc:format>image/svg+xml</dc:format><dc:type
           rdf:resource="http://purl.org/dc/dcmitype/StillImage" /></cc:Work></rdf:RDF></metadata><defs
     id="defs6"><clipPath
       clipPathUnits="userSpaceOnUse"
       id="clipPath18"><path
         d="M 0,595.276 H 841.89 V 0 H 0 Z"
         id="path16" /></clipPath><linearGradient
       x1="0"
       y1="0"
       x2="1"
       y2="0"
       gradientUnits="userSpaceOnUse"
       gradientTransform="matrix(547.334,0,0,547.334,-544.8342,595.276)"
       spreadMethod="pad"
       id="linearGradient28"><stop
         style="stop-opacity:1;stop-color:#20aac1"
         offset="0"
         id="stop22" /><stop
         style="stop-opacity:1;stop-color:#20aac1"
         offset="0.01669649"
         id="stop24" /><stop
         style="stop-opacity:1;stop-color:#83a4c8"
         offset="1"
         id="stop26" /></linearGradient><linearGradient
       x1="0"
       y1="0"
       x2="1"
       y2="0"
       gradientUnits="userSpaceOnUse"
       gradientTransform="matrix(106.32894,0,0,-106.32894,206.95584,336.43173)"
       spreadMethod="pad"
       id="linearGradient50"><stop
         style="stop-opacity:1;stop-color:#20aac1"
         offset="0"
         id="stop44" /><stop
         style="stop-opacity:1;stop-color:#20aac1"
         offset="0.01669649"
         id="stop46" /><stop
         style="stop-opacity:1;stop-color:#83a4c8"
         offset="1"
         id="stop48" /></linearGradient><linearGradient
       x1="0"
       y1="0"
       x2="1"
       y2="0"
       gradientUnits="userSpaceOnUse"
       gradientTransform="matrix(80.19265,0,0,-80.19265,297.00058,302.26691)"
       spreadMethod="pad"
       id="linearGradient72"><stop
         style="stop-opacity:1;stop-color:#20aac1"
         offset="0"
         id="stop66" /><stop
         style="stop-opacity:1;stop-color:#20aac1"
         offset="0.01669649"
         id="stop68" /><stop
         style="stop-opacity:1;stop-color:#83a4c8"
         offset="1"
         id="stop70" /></linearGradient><linearGradient
       x1="0"
       y1="0"
       x2="1"
       y2="0"
       gradientUnits="userSpaceOnUse"
       gradientTransform="matrix(80.304276,0,0,-80.304276,385.9501,302.27362)"
       spreadMethod="pad"
       id="linearGradient94"><stop
         style="stop-opacity:1;stop-color:#20aac1"
         offset="0"
         id="stop88" /><stop
         style="stop-opacity:1;stop-color:#20aac1"
         offset="0.01669649"
         id="stop90" /><stop
         style="stop-opacity:1;stop-color:#83a4c8"
         offset="1"
         id="stop92" /></linearGradient><linearGradient
       x1="0"
       y1="0"
       x2="1"
       y2="0"
       gradientUnits="userSpaceOnUse"
       gradientTransform="matrix(19.338421,0,0,-19.338421,466.01367,303.60165)"
       spreadMethod="pad"
       id="linearGradient116"><stop
         style="stop-opacity:1;stop-color:#20aac1"
         offset="0"
         id="stop110" /><stop
         style="stop-opacity:1;stop-color:#20aac1"
         offset="0.01669649"
         id="stop112" /><stop
         style="stop-opacity:1;stop-color:#83a4c8"
         offset="1"
         id="stop114" /></linearGradient><linearGradient
       x1="0"
       y1="0"
       x2="1"
       y2="0"
       gradientUnits="userSpaceOnUse"
       gradientTransform="matrix(79.259476,0,0,-79.259476,511.03946,302.18771)"
       spreadMethod="pad"
       id="linearGradient138"><stop
         style="stop-opacity:1;stop-color:#20aac1"
         offset="0"
         id="stop132" /><stop
         style="stop-opacity:1;stop-color:#20aac1"
         offset="0.01669649"
         id="stop134" /><stop
         style="stop-opacity:1;stop-color:#83a4c8"
         offset="1"
         id="stop136" /></linearGradient><linearGradient
       x1="0"
       y1="0"
       x2="1"
       y2="0"
       gradientUnits="userSpaceOnUse"
       gradientTransform="matrix(10.271646,0,0,-10.271646,601.091,315.70261)"
       spreadMethod="pad"
       id="linearGradient160"><stop
         style="stop-opacity:1;stop-color:#20aac1"
         offset="0"
         id="stop154" /><stop
         style="stop-opacity:1;stop-color:#20aac1"
         offset="0.01669649"
         id="stop156" /><stop
         style="stop-opacity:1;stop-color:#83a4c8"
         offset="1"
         id="stop158" /></linearGradient><linearGradient
       x1="0"
       y1="0"
       x2="1"
       y2="0"
       gradientUnits="userSpaceOnUse"
       gradientTransform="matrix(18.817219,0,0,-18.817219,490.646,270.80264)"
       spreadMethod="pad"
       id="linearGradient182"><stop
         style="stop-opacity:1;stop-color:#20aac1"
         offset="0"
         id="stop176" /><stop
         style="stop-opacity:1;stop-color:#20aac1"
         offset="0.01669649"
         id="stop178" /><stop
         style="stop-opacity:1;stop-color:#83a4c8"
         offset="1"
         id="stop180" /></linearGradient><linearGradient
       x1="0"
       y1="0"
       x2="1"
       y2="0"
       gradientUnits="userSpaceOnUse"
       gradientTransform="matrix(39.84074,0,0,-39.84074,275.9902,389.85168)"
       spreadMethod="pad"
       id="linearGradient204"><stop
         style="stop-opacity:1;stop-color:#20aac1"
         offset="0"
         id="stop198" /><stop
         style="stop-opacity:1;stop-color:#20aac1"
         offset="0.01669649"
         id="stop200" /><stop
         style="stop-opacity:1;stop-color:#83a4c8"
         offset="1"
         id="stop202" /></linearGradient><linearGradient
       x1="0"
       y1="0"
       x2="1"
       y2="0"
       gradientUnits="userSpaceOnUse"
       gradientTransform="matrix(404.40683,0,0,-404.40683,206.95584,325.42368)"
       spreadMethod="pad"
       id="linearGradient226"><stop
         style="stop-opacity:1;stop-color:#20aac1"
         offset="0"
         id="stop220" /><stop
         style="stop-opacity:1;stop-color:#20aac1"
         offset="0.01669649"
         id="stop222" /><stop
         style="stop-opacity:1;stop-color:#83a4c8"
         offset="1"
         id="stop224" /></linearGradient><linearGradient
       x1="0"
       y1="0"
       x2="1"
       y2="0"
       gradientUnits="userSpaceOnUse"
       gradientTransform="matrix(404.40683,0,0,-404.40683,206.95584,325.42368)"
       spreadMethod="pad"
       id="linearGradient248"><stop
         style="stop-opacity:1;stop-color:#20aac1"
         offset="0"
         id="stop242" /><stop
         style="stop-opacity:1;stop-color:#20aac1"
         offset="0.01669649"
         id="stop244" /><stop
         style="stop-opacity:1;stop-color:#83a4c8"
         offset="1"
         id="stop246" /></linearGradient><linearGradient
       x1="0"
       y1="0"
       x2="1"
       y2="0"
       gradientUnits="userSpaceOnUse"
       gradientTransform="matrix(404.40683,0,0,-404.40683,206.95584,325.42368)"
       spreadMethod="pad"
       id="linearGradient270"><stop
         style="stop-opacity:1;stop-color:#20aac1"
         offset="0"
         id="stop264" /><stop
         style="stop-opacity:1;stop-color:#20aac1"
         offset="0.01669649"
         id="stop266" /><stop
         style="stop-opacity:1;stop-color:#83a4c8"
         offset="1"
         id="stop268" /></linearGradient><linearGradient
       x1="0"
       y1="0"
       x2="1"
       y2="0"
       gradientUnits="userSpaceOnUse"
       gradientTransform="matrix(404.40683,0,0,-404.40683,206.95584,325.42368)"
       spreadMethod="pad"
       id="linearGradient292"><stop
         style="stop-opacity:1;stop-color:#20aac1"
         offset="0"
         id="stop286" /><stop
         style="stop-opacity:1;stop-color:#20aac1"
         offset="0.01669649"
         id="stop288" /><stop
         style="stop-opacity:1;stop-color:#83a4c8"
         offset="1"
         id="stop290" /></linearGradient><linearGradient
       x1="0"
       y1="0"
       x2="1"
       y2="0"
       gradientUnits="userSpaceOnUse"
       gradientTransform="matrix(404.40683,0,0,-404.40683,206.95584,325.42368)"
       spreadMethod="pad"
       id="linearGradient314"><stop
         style="stop-opacity:1;stop-color:#20aac1"
         offset="0"
         id="stop308" /><stop
         style="stop-opacity:1;stop-color:#20aac1"
         offset="0.01669649"
         id="stop310" /><stop
         style="stop-opacity:1;stop-color:#83a4c8"
         offset="1"
         id="stop312" /></linearGradient><linearGradient
       x1="0"
       y1="0"
       x2="1"
       y2="0"
       gradientUnits="userSpaceOnUse"
       gradientTransform="matrix(404.40683,0,0,-404.40683,206.95584,325.42368)"
       spreadMethod="pad"
       id="linearGradient336"><stop
         style="stop-opacity:1;stop-color:#20aac1"
         offset="0"
         id="stop330" /><stop
         style="stop-opacity:1;stop-color:#20aac1"
         offset="0.01669649"
         id="stop332" /><stop
         style="stop-opacity:1;stop-color:#83a4c8"
         offset="1"
         id="stop334" /></linearGradient><linearGradient
       x1="0"
       y1="0"
       x2="1"
       y2="0"
       gradientUnits="userSpaceOnUse"
       gradientTransform="matrix(404.40683,0,0,-404.40683,206.95584,325.42368)"
       spreadMethod="pad"
       id="linearGradient358"><stop
         style="stop-opacity:1;stop-color:#20aac1"
         offset="0"
         id="stop352" /><stop
         style="stop-opacity:1;stop-color:#20aac1"
         offset="0.01669649"
         id="stop354" /><stop
         style="stop-opacity:1;stop-color:#83a4c8"
         offset="1"
         id="stop356" /></linearGradient><linearGradient
       x1="0"
       y1="0"
       x2="1"
       y2="0"
       gradientUnits="userSpaceOnUse"
       gradientTransform="matrix(404.40683,0,0,-404.40683,206.95584,325.42368)"
       spreadMethod="pad"
       id="linearGradient380"><stop
         style="stop-opacity:1;stop-color:#20aac1"
         offset="0"
         id="stop374" /><stop
         style="stop-opacity:1;stop-color:#20aac1"
         offset="0.01669649"
         id="stop376" /><stop
         style="stop-opacity:1;stop-color:#83a4c8"
         offset="1"
         id="stop378" /></linearGradient><linearGradient
       x1="0"
       y1="0"
       x2="1"
       y2="0"
       gradientUnits="userSpaceOnUse"
       gradientTransform="matrix(404.40683,0,0,-404.40683,206.95584,325.42368)"
       spreadMethod="pad"
       id="linearGradient402"><stop
         style="stop-opacity:1;stop-color:#20aac1"
         offset="0"
         id="stop396" /><stop
         style="stop-opacity:1;stop-color:#20aac1"
         offset="0.01669649"
         id="stop398" /><stop
         style="stop-opacity:1;stop-color:#83a4c8"
         offset="1"
         id="stop400" /></linearGradient></defs><sodipodi:namedview
     pagecolor="#ffffff"
     bordercolor="#666666"
     borderopacity="1"
     objecttolerance="10"
     gridtolerance="10"
     guidetolerance="10"
     inkscape:pageopacity="0"
     inkscape:pageshadow="2"
     inkscape:window-width="640"
     inkscape:window-height="480"
     id="namedview4" /><g
     id="g10"
     inkscape:groupmode="layer"
     inkscape:label="deejai"
     transform="matrix(1.3333333,0,0,-1.3333333,0,793.70133)"><g
       id="g12"><g
         id="g14"
         clip-path="url(#clipPath18)"><g
           id="g20"
           transform="translate(680.3262,309.424)"><path
             d="m 0,0 c 0,-149.761 -121.405,-271.167 -271.167,-271.167 -149.761,0 -271.167,121.406 -271.167,271.167 0,149.761 121.406,271.167 271.167,271.167 C -121.405,271.167 0,149.761 0,0 Z"
             style="fill:none;stroke:url(#linearGradient28);stroke-width:5;stroke-linecap:butt;stroke-linejoin:miter;stroke-miterlimit:10;stroke-dasharray:none;stroke-opacity:1"
             id="path30" /></g></g></g><g
       id="g32"><g
         id="g34"><g
           id="g40"><g
             id="g42"><path
               d="m 282.537,411.469 h -6.606 l -0.017,-82.992 c -7.559,8.655 -17.006,13.204 -28.339,13.662 v 0 c -11.069,0.357 -20.604,-3.5 -28.61,-11.565 v 0 c -8.004,-8.065 -12.009,-17.732 -12.009,-28.999 v 0 c 0,-10.817 3.719,-20.148 11.152,-27.988 v 0 c 7.438,-7.845 16.521,-11.9 27.244,-12.169 v 0 c 11.091,-0.364 20.736,3.488 28.939,11.558 v 0 c 8.197,8.065 12.169,17.645 11.895,28.73 v 0 l 0.013,99.532 27.086,-0.011 v 10.242 z m -36.981,-140.05 c -7.95,0.276 -14.684,3.466 -20.191,9.579 v 0 c -5.513,6.112 -8.226,13.243 -8.132,21.39 v 0 c 0.088,8.236 3.047,15.279 8.874,21.116 v 0 c 5.827,5.837 12.808,8.715 20.939,8.627 v 0 c 7.951,0 14.706,-2.9 20.263,-8.693 v 0 c 5.557,-5.794 8.423,-12.77 8.605,-20.912 v 0 c 0.27,-8.517 -2.603,-15.938 -8.61,-22.277 v 0 c -5.609,-5.917 -12.296,-8.875 -20.072,-8.875 v 0 c -0.553,0 -1.112,0.015 -1.676,0.045"
               style="fill:url(#linearGradient50);stroke:none"
               id="path52" /></g></g></g></g><g
       id="g54"><g
         id="g56"><g
           id="g62"><g
             id="g64"><path
               d="m 328.625,341.995 c -11.222,-2.352 -19.827,-8.65 -25.806,-18.882 v 0 c -5.984,-10.232 -7.354,-20.89 -4.102,-31.964 v 0 c 2.992,-10.488 9.431,-18.49 19.312,-24.01 v 0 c 9.875,-5.523 19.884,-6.827 30.024,-3.921 v 0 c 8.077,2.254 14.789,6.622 20.145,13.098 v 0 c 5.358,6.47 8.357,14.086 8.996,22.846 v 0 l -10.575,-2.833 c -2.185,-12.068 -9.128,-19.761 -20.832,-23.079 v 0 c -7.554,-2.121 -14.77,-1.486 -21.645,1.895 v 0 c -6.882,3.385 -11.716,8.713 -14.503,15.992 v 0 l 66.863,17.916 -1.435,5.357 c -2.472,9.225 -8.235,16.641 -17.294,22.239 v 0 c -6.842,4.115 -13.886,6.171 -21.128,6.171 v 0 c -2.646,0 -5.321,-0.275 -8.02,-0.825 M 312.723,320.1 c 4.19,5.788 9.863,9.592 17.029,11.421 v 0 c 7.159,1.827 13.887,1.272 20.181,-1.661 v 0 c 6.293,-2.933 11.067,-7.697 14.327,-14.291 v 0 l -57.07,-15.291 c -0.504,7.428 1.349,14.031 5.533,19.822"
               style="fill:url(#linearGradient72);stroke:none"
               id="path74" /></g></g></g></g><g
       id="g76"><g
         id="g78"><g
           id="g84"><g
             id="g86"><path
               d="m 415.9,341.601 c -11.112,-2.829 -19.439,-9.489 -24.976,-19.967 v 0 c -5.54,-10.479 -6.454,-21.187 -2.731,-32.111 v 0 c 3.437,-10.349 10.213,-18.07 20.32,-23.163 v 0 c 10.101,-5.094 20.158,-5.969 30.165,-2.634 v 0 c 7.972,2.597 14.492,7.248 19.566,13.947 v 0 c 5.076,6.694 7.748,14.431 8.01,23.21 v 0 L 455.81,297.6 c -1.665,-12.149 -8.274,-20.133 -19.826,-23.948 v 0 c -7.455,-2.442 -14.692,-2.116 -21.706,0.969 v 0 c -7.02,3.087 -12.077,8.204 -15.173,15.357 v 0 l 66.037,20.758 -1.664,5.29 c -2.863,9.112 -8.939,16.274 -18.228,21.479 v 0 c -6.485,3.533 -13.069,5.298 -19.746,5.298 v 0 c -3.18,0 -6.382,-0.401 -9.604,-1.202 m -14.953,-22.555 c 3.94,5.962 9.446,10.006 16.526,12.139 v 0 c 7.075,2.132 13.82,1.864 20.233,-0.797 v 0 c 6.414,-2.661 11.387,-7.217 14.925,-13.665 v 0 l -56.364,-17.718 c -0.82,7.401 0.748,14.077 4.68,20.041"
               style="fill:url(#linearGradient94);stroke:none"
               id="path96" /></g></g></g></g><g
       id="g98"><g
         id="g100"><g
           id="g106"><g
             id="g108"><path
               d="m 474.668,349.571 h 10.685 v 18.255 h -10.685 z m 0,-8.786 v -77.206 c 0,-4.869 -0.495,-8.115 -1.486,-9.738 v 0 c -1.534,-2.519 -3.922,-3.916 -7.168,-4.186 v 0 -10.277 l 2.882,0.539 c 5.392,0.996 9.595,3.246 12.616,6.761 v 0 c 2.558,2.883 3.841,7.89 3.841,15.009 v 0 79.098 z"
               style="fill:url(#linearGradient116);stroke:none"
               id="path118" /></g></g></g></g><g
       id="g120"><g
         id="g122"><g
           id="g128"><g
             id="g130"><path
               d="m 523.071,331.118 c -8.021,-8.07 -12.032,-17.737 -12.032,-29.004 v 0 c 0,-10.816 3.725,-20.148 11.18,-27.988 v 0 c 7.449,-7.845 16.477,-11.943 27.068,-12.307 v 0 c 12.12,-0.357 22.36,4.236 30.711,13.792 v 0 -12.032 h 10.276 v 38.127 0.545 c 0.359,10.723 -3.245,20.032 -10.821,27.921 v 0 c -7.57,7.884 -16.764,12.01 -27.58,12.368 v 0 c -0.592,0.024 -1.179,0.036 -1.763,0.036 v 0 c -10.429,0 -19.442,-3.819 -27.039,-11.458 m 26.431,-59.291 c -7.857,0.363 -14.568,3.593 -20.12,9.689 v 0 c -5.557,6.095 -8.247,13.214 -8.066,21.346 v 0 c 0.088,8.219 3.027,15.217 8.809,20.999 v 0 c 5.782,5.783 12.786,8.676 21.005,8.676 v 0 c 7.862,0 14.591,-2.893 20.191,-8.676 v 0 c 5.601,-5.782 8.495,-12.736 8.677,-20.867 v 0 c 0.176,-8.583 -2.734,-16.01 -8.742,-22.293 v 0 c -5.681,-5.934 -12.47,-8.904 -20.371,-8.904 v 0 c -0.457,0 -0.918,0.01 -1.383,0.03"
               style="fill:url(#linearGradient138);stroke:none"
               id="path140" /></g></g></g></g><g
       id="g142"><g
         id="g144"><g
           id="g150"><g
             id="g152"><path
               d="m 601.091,349.841 h 10.271 v 17.985 h -10.271 z m 0,-86.262 h 10.271 v 77.068 h -10.271 z"
               style="fill:url(#linearGradient160);stroke:none"
               id="path162" /></g></g></g></g><g
       id="g164"><g
         id="g166"><g
           id="g172"><g
             id="g174"><path
               d="m 490.647,270.803 c 0,-5.197 4.212,-9.409 9.407,-9.409 v 0 c 5.197,0 9.409,4.212 9.409,9.409 v 0 c 0,5.196 -4.212,9.408 -9.409,9.408 v 0 c -5.195,0 -9.407,-4.212 -9.407,-9.408"
               style="fill:url(#linearGradient182);stroke:none"
               id="path184" /></g></g></g></g><g
       id="g186"><g
         id="g188"><g
           id="g194"><g
             id="g196"><path
               d="m 305.279,411.223 -29.289,0.062 10.205,-10.047 19.065,0.522 c -1.451,-7.303 -4.963,-13.193 -10.513,-17.693 v 0 c -2.642,-2.139 -5.492,-3.756 -8.551,-4.853 v 0 l -0.266,-10.98 c 6.452,1.694 12.316,5.142 17.592,10.34 v 0 c 8.446,8.318 12.549,18.25 12.298,29.788 v 0 c -0.015,1.05 -0.067,2.086 -0.157,3.108 v 0 z"
               style="fill:url(#linearGradient204);stroke:none"
               id="path206" /></g></g></g></g><g
       id="g208"><g
         id="g210"><g
           id="g216"><g
             id="g218"><path
               d="m 282.537,411.469 h -6.606 l -0.017,-82.992 c -7.559,8.655 -17.006,13.204 -28.339,13.662 v 0 c -11.069,0.357 -20.604,-3.5 -28.61,-11.565 v 0 c -8.004,-8.065 -12.009,-17.732 -12.009,-28.999 v 0 c 0,-10.817 3.719,-20.148 11.152,-27.988 v 0 c 7.438,-7.845 16.521,-11.9 27.244,-12.169 v 0 c 11.091,-0.364 20.736,3.488 28.939,11.558 v 0 c 8.197,8.065 12.169,17.645 11.895,28.73 v 0 l 0.013,99.532 27.086,-0.011 v 10.242 z m -36.981,-140.05 c -7.95,0.276 -14.684,3.466 -20.191,9.579 v 0 c -5.513,6.112 -8.226,13.243 -8.132,21.39 v 0 c 0.088,8.236 3.047,15.279 8.874,21.116 v 0 c 5.827,5.837 12.808,8.715 20.939,8.627 v 0 c 7.951,0 14.706,-2.9 20.263,-8.693 v 0 c 5.557,-5.794 8.423,-12.77 8.605,-20.912 v 0 c 0.27,-8.517 -2.603,-15.938 -8.61,-22.277 v 0 c -5.609,-5.917 -12.296,-8.875 -20.072,-8.875 v 0 c -0.553,0 -1.112,0.015 -1.676,0.045"
               style="fill:url(#linearGradient226);stroke:none"
               id="path228" /></g></g></g></g><g
       id="g230"><g
         id="g232"><g
           id="g238"><g
             id="g240"><path
               d="m 328.625,341.995 c -11.222,-2.352 -19.827,-8.65 -25.806,-18.882 v 0 c -5.984,-10.232 -7.354,-20.89 -4.102,-31.964 v 0 c 2.992,-10.488 9.431,-18.49 19.312,-24.01 v 0 c 9.875,-5.523 19.884,-6.827 30.024,-3.921 v 0 c 8.077,2.254 14.789,6.622 20.145,13.098 v 0 c 5.358,6.47 8.357,14.086 8.996,22.846 v 0 l -10.575,-2.833 c -2.185,-12.068 -9.128,-19.761 -20.832,-23.079 v 0 c -7.554,-2.121 -14.77,-1.486 -21.645,1.895 v 0 c -6.882,3.385 -11.716,8.713 -14.503,15.992 v 0 l 66.863,17.916 -1.435,5.357 c -2.472,9.225 -8.235,16.641 -17.294,22.239 v 0 c -6.842,4.115 -13.886,6.171 -21.128,6.171 v 0 c -2.646,0 -5.321,-0.275 -8.02,-0.825 M 312.723,320.1 c 4.19,5.788 9.863,9.592 17.029,11.421 v 0 c 7.159,1.827 13.887,1.272 20.181,-1.661 v 0 c 6.293,-2.933 11.067,-7.697 14.327,-14.291 v 0 l -57.07,-15.291 c -0.504,7.428 1.349,14.031 5.533,19.822"
               style="fill:url(#linearGradient248);stroke:none"
               id="path250" /></g></g></g></g><g
       id="g252"><g
         id="g254"><g
           id="g260"><g
             id="g262"><path
               d="m 415.9,341.601 c -11.112,-2.829 -19.439,-9.489 -24.976,-19.967 v 0 c -5.54,-10.479 -6.454,-21.187 -2.731,-32.111 v 0 c 3.437,-10.349 10.213,-18.07 20.32,-23.163 v 0 c 10.101,-5.094 20.158,-5.969 30.165,-2.634 v 0 c 7.972,2.597 14.492,7.248 19.566,13.947 v 0 c 5.076,6.694 7.748,14.431 8.01,23.21 v 0 L 455.81,297.6 c -1.665,-12.149 -8.274,-20.133 -19.826,-23.948 v 0 c -7.455,-2.442 -14.692,-2.116 -21.706,0.969 v 0 c -7.02,3.087 -12.077,8.204 -15.173,15.357 v 0 l 66.037,20.758 -1.664,5.29 c -2.863,9.112 -8.939,16.274 -18.228,21.479 v 0 c -6.485,3.533 -13.069,5.298 -19.746,5.298 v 0 c -3.18,0 -6.382,-0.401 -9.604,-1.202 m -14.953,-22.555 c 3.94,5.962 9.446,10.006 16.526,12.139 v 0 c 7.075,2.132 13.82,1.864 20.233,-0.797 v 0 c 6.414,-2.661 11.387,-7.217 14.925,-13.665 v 0 l -56.364,-17.718 c -0.82,7.401 0.748,14.077 4.68,20.041"
               style="fill:url(#linearGradient270);stroke:none"
               id="path272" /></g></g></g></g><g
       id="g274"><g
         id="g276"><g
           id="g282"><g
             id="g284"><path
               d="m 474.668,349.571 h 10.685 v 18.255 h -10.685 z m 0,-8.786 v -77.206 c 0,-4.869 -0.495,-8.115 -1.486,-9.738 v 0 c -1.534,-2.519 -3.922,-3.916 -7.168,-4.186 v 0 -10.277 l 2.882,0.539 c 5.392,0.996 9.595,3.246 12.616,6.761 v 0 c 2.558,2.883 3.841,7.89 3.841,15.009 v 0 79.098 z"
               style="fill:url(#linearGradient292);stroke:none"
               id="path294" /></g></g></g></g><g
       id="g296"><g
         id="g298"><g
           id="g304"><g
             id="g306"><path
               d="m 523.071,331.118 c -8.021,-8.07 -12.032,-17.737 -12.032,-29.004 v 0 c 0,-10.816 3.725,-20.148 11.18,-27.988 v 0 c 7.449,-7.845 16.477,-11.943 27.068,-12.307 v 0 c 12.12,-0.357 22.36,4.236 30.711,13.792 v 0 -12.032 h 10.276 v 38.127 0.545 c 0.359,10.723 -3.245,20.032 -10.821,27.921 v 0 c -7.57,7.884 -16.764,12.01 -27.58,12.368 v 0 c -0.592,0.024 -1.179,0.036 -1.763,0.036 v 0 c -10.429,0 -19.442,-3.819 -27.039,-11.458 m 26.431,-59.291 c -7.857,0.363 -14.568,3.593 -20.12,9.689 v 0 c -5.557,6.095 -8.247,13.214 -8.066,21.346 v 0 c 0.088,8.219 3.027,15.217 8.809,20.999 v 0 c 5.782,5.783 12.786,8.676 21.005,8.676 v 0 c 7.862,0 14.591,-2.893 20.191,-8.676 v 0 c 5.601,-5.782 8.495,-12.736 8.677,-20.867 v 0 c 0.176,-8.583 -2.734,-16.01 -8.742,-22.293 v 0 c -5.681,-5.934 -12.47,-8.904 -20.371,-8.904 v 0 c -0.457,0 -0.918,0.01 -1.383,0.03"
               style="fill:url(#linearGradient314);stroke:none"
               id="path316" /></g></g></g></g><g
       id="g318"><g
         id="g320"><g
           id="g326"><g
             id="g328"><path
               d="m 601.091,349.841 h 10.271 v 17.985 h -10.271 z m 0,-86.262 h 10.271 v 77.068 h -10.271 z"
               style="fill:url(#linearGradient336);stroke:none"
               id="path338" /></g></g></g></g><g
       id="g340"><g
         id="g342"><g
           id="g348"><g
             id="g350"><path
               d="m 490.647,270.803 c 0,-5.197 4.212,-9.409 9.407,-9.409 v 0 c 5.197,0 9.409,4.212 9.409,9.409 v 0 c 0,5.196 -4.212,9.408 -9.409,9.408 v 0 c -5.195,0 -9.407,-4.212 -9.407,-9.408"
               style="fill:url(#linearGradient358);stroke:none"
               id="path360" /></g></g></g></g><g
       id="g362"><g
         id="g364"><g
           id="g370"><g
             id="g372"><path
               d="m 490.647,270.803 c 0,-5.197 4.212,-9.409 9.407,-9.409 v 0 c 5.197,0 9.409,4.212 9.409,9.409 v 0 c 0,5.196 -4.212,9.408 -9.409,9.408 v 0 c -5.195,0 -9.407,-4.212 -9.407,-9.408 m 1,0 c 0,4.636 3.771,8.408 8.407,8.408 v 0 c 4.637,0 8.409,-3.772 8.409,-8.408 v 0 c 0,-4.637 -3.772,-8.409 -8.409,-8.409 v 0 c -4.636,0 -8.407,3.772 -8.407,8.409"
               style="fill:url(#linearGradient380);stroke:none"
               id="path382" /></g></g></g></g><g
       id="g384"><g
         id="g386"><g
           id="g392"><g
             id="g394"><path
               d="m 305.279,411.223 -29.289,0.062 10.205,-10.047 19.065,0.522 c -1.451,-7.303 -4.963,-13.193 -10.513,-17.693 v 0 c -2.642,-2.139 -5.492,-3.756 -8.551,-4.853 v 0 l -0.266,-10.98 c 6.452,1.694 12.316,5.142 17.592,10.34 v 0 c 8.446,8.318 12.549,18.25 12.298,29.788 v 0 c -0.015,1.05 -0.067,2.086 -0.157,3.108 v 0 z"
               style="fill:url(#linearGradient402);stroke:none"
               id="path404" /></g></g></g></g></g></svg>
